<?xml version="1.0" encoding="UTF-8" standalone="no"?>
<!DOCTYPE svg PUBLIC "-//W3C//DTD SVG 1.1//EN" "http://www.w3.org/Graphics/SVG/1.1/DTD/svg11.dtd">
<svg width="100%" height="100%" viewBox="0 0 2000 2000" version="1.1" xmlns="http://www.w3.org/2000/svg" xmlns:xlink="http://www.w3.org/1999/xlink" xml:space="preserve" xmlns:serif="http://www.serif.com/" style="fill-rule:evenodd;clip-rule:evenodd;stroke-linejoin:round;stroke-miterlimit:2;">
    <g transform="matrix(0.707107,0.707107,-0.707107,0.707107,466.56373,-396.874998)">
        <g transform="matrix(0.739971,0,0,0.739971,236.847521,264.034433)">
            <circle cx="916.892" cy="1075.886" r="90.655" style="fill:rgb(242,184,255);"/>
        </g>
        <g transform="matrix(0.5,0,0,0.5,415.321017,520.756233)">
            <g transform="matrix(1.23896,0,0,1,-398.280713,-277.468346)">
                <path d="M1128.592,1318.981C1044.174,1234.887 991.899,1118.548 991.899,990.096C991.899,861.644 1044.174,745.305 1128.592,661.212C1213.011,745.305 1265.286,861.644 1265.286,990.096C1265.286,1118.548 1213.011,1234.887 1128.592,1318.981Z" style="fill:rgb(242,184,255);"/>
            </g>
            <g transform="matrix(0.842575,0,0,1,49.07614,-277.468346)">
                <path d="M1128.592,1318.981C1044.174,1234.887 991.899,1118.548 991.899,990.096C991.899,861.644 1044.174,745.305 1128.592,661.212C1213.011,745.305 1265.286,861.644 1265.286,990.096C1265.286,1118.548 1213.011,1234.887 1128.592,1318.981Z" style="fill:rgb(193,144,201);"/>
            </g>
        </g>
        <g transform="matrix(0,0.5,-0.5,0,1454.723334,560.15855)">
            <g transform="matrix(1.23896,0,0,1,-398.280713,-277.468346)">
                <path d="M1128.592,1318.981C1044.174,1234.887 991.899,1118.548 991.899,990.096C991.899,861.644 1044.174,745.305 1128.592,661.212C1213.011,745.305 1265.286,861.644 1265.286,990.096C1265.286,1118.548 1213.011,1234.887 1128.592,1318.981Z" style="fill:rgb(242,184,255);"/>
            </g>
            <g transform="matrix(0.842575,0,0,1,49.07614,-277.468346)">
                <path d="M1128.592,1318.981C1044.174,1234.887 991.899,1118.548 991.899,990.096C991.899,861.644 1044.174,745.305 1128.592,661.212C1213.011,745.305 1265.286,861.644 1265.286,990.096C1265.286,1118.548 1213.011,1234.887 1128.592,1318.981Z" style="fill:rgb(193,144,201);"/>
            </g>
        </g>
        <g transform="matrix(-0.5,-0,0,-0.5,1415.321017,1599.560867)">
            <g transform="matrix(1.23896,0,0,1,-398.280713,-277.468346)">
                <path d="M1128.592,1318.981C1044.174,1234.887 991.899,1118.548 991.899,990.096C991.899,861.644 1044.174,745.305 1128.592,661.212C1213.011,745.305 1265.286,861.644 1265.286,990.096C1265.286,1118.548 1213.011,1234.887 1128.592,1318.981Z" style="fill:rgb(242,184,255);"/>
            </g>
            <g transform="matrix(0.842575,0,0,1,49.07614,-277.468346)">
                <path d="M1128.592,1318.981C1044.174,1234.887 991.899,1118.548 991.899,990.096C991.899,861.644 1044.174,745.305 1128.592,661.212C1213.011,745.305 1265.286,861.644 1265.286,990.096C1265.286,1118.548 1213.011,1234.887 1128.592,1318.981Z" style="fill:rgb(193,144,201);"/>
            </g>
        </g>
        <g transform="matrix(0,-0.5,0.5,0,375.9187,1560.15855)">
            <g transform="matrix(1.23896,0,0,1,-398.280713,-277.468346)">
                <path d="M1128.592,1318.981C1044.174,1234.887 991.899,1118.548 991.899,990.096C991.899,861.644 1044.174,745.305 1128.592,661.212C1213.011,745.305 1265.286,861.644 1265.286,990.096C1265.286,1118.548 1213.011,1234.887 1128.592,1318.981Z" style="fill:rgb(242,184,255);"/>
            </g>
            <g transform="matrix(0.842575,0,0,1,49.07614,-277.468346)">
                <path d="M1128.592,1318.981C1044.174,1234.887 991.899,1118.548 991.899,990.096C991.899,861.644 1044.174,745.305 1128.592,661.212C1213.011,745.305 1265.286,861.644 1265.286,990.096C1265.286,1118.548 1213.011,1234.887 1128.592,1318.981Z" style="fill:rgb(193,144,201);"/>
            </g>
        </g>
        <g transform="matrix(0.479942,0,0,0.479942,475.266335,543.796235)">
            <circle cx="916.892" cy="1075.886" r="90.655" style="fill:rgb(244,210,250);"/>
        </g>
    </g>
    <g transform="matrix(1.814669,0,0,1.814669,180.416431,-1380.535395)">
        <g transform="matrix(339.291439,0,0,339.291439,953.38137,1430.424425)">
        </g>
        <text x="276.787px" y="1430.424px" style="font-family:'FranklinGothic-Medium', 'Franklin Gothic Medium', sans-serif;font-size:339.291px;fill:rgb(193,144,201);">Lilac</text>
    </g>
</svg>
