<?xml version="1.0" encoding="UTF-8" standalone="no"?>
<!DOCTYPE svg PUBLIC "-//W3C//DTD SVG 1.1//EN" "http://www.w3.org/Graphics/SVG/1.1/DTD/svg11.dtd">
<svg width="100%" height="100%" viewBox="0 0 2000 2000" version="1.1" xmlns="http://www.w3.org/2000/svg" xmlns:xlink="http://www.w3.org/1999/xlink" xml:space="preserve" xmlns:serif="http://www.serif.com/" style="fill-rule:evenodd;clip-rule:evenodd;stroke-linejoin:round;stroke-miterlimit:2;">
    <g transform="matrix(1.946176,0,0,1.946176,46.057197,-2025.194546)">
        <g>
            <g transform="matrix(376.130199,0,0,376.130199,92.405063,1620.253165)">
                <path d="M0.074,0.01C0.065,0.01 0.057,0.007 0.051,0.002C0.044,-0.003 0.04,-0.011 0.04,-0.021L0.04,-0.401C0.04,-0.412 0.044,-0.421 0.051,-0.426C0.057,-0.432 0.065,-0.435 0.074,-0.435C0.083,-0.435 0.091,-0.432 0.098,-0.426C0.104,-0.421 0.108,-0.412 0.108,-0.401L0.108,-0.021C0.108,-0.011 0.104,-0.003 0.098,0.002C0.091,0.007 0.083,0.01 0.074,0.01Z" style="fill:rgb(193,144,201);fill-rule:nonzero;"/>
            </g>
            <g transform="matrix(376.130199,0,0,376.130199,148.824593,1620.253165)">
                <path d="M0.075,0.01C0.066,0.01 0.058,0.007 0.052,0.002C0.045,-0.003 0.041,-0.011 0.041,-0.021L0.041,-0.261C0.041,-0.272 0.045,-0.281 0.052,-0.287C0.058,-0.292 0.066,-0.295 0.075,-0.295C0.084,-0.295 0.091,-0.292 0.099,-0.287C0.105,-0.281 0.109,-0.272 0.109,-0.261L0.109,-0.021C0.109,-0.011 0.105,-0.003 0.099,0.002C0.091,0.007 0.084,0.01 0.075,0.01ZM0.076,-0.35C0.063,-0.35 0.052,-0.354 0.044,-0.362C0.035,-0.371 0.03,-0.381 0.03,-0.393C0.03,-0.404 0.035,-0.414 0.044,-0.422C0.052,-0.431 0.063,-0.435 0.076,-0.435C0.088,-0.435 0.098,-0.431 0.107,-0.422C0.116,-0.414 0.12,-0.404 0.12,-0.393C0.12,-0.381 0.116,-0.371 0.107,-0.362C0.098,-0.354 0.088,-0.35 0.076,-0.35Z" style="fill:rgb(193,144,201);fill-rule:nonzero;"/>
            </g>
            <g transform="matrix(376.130199,0,0,376.130199,205.244123,1620.253165)">
                <path d="M0.074,0.01C0.065,0.01 0.057,0.007 0.051,0.002C0.044,-0.003 0.04,-0.011 0.04,-0.021L0.04,-0.401C0.04,-0.412 0.044,-0.421 0.051,-0.426C0.057,-0.432 0.065,-0.435 0.074,-0.435C0.083,-0.435 0.091,-0.432 0.098,-0.426C0.104,-0.421 0.108,-0.412 0.108,-0.401L0.108,-0.021C0.108,-0.011 0.104,-0.003 0.098,0.002C0.091,0.007 0.083,0.01 0.074,0.01Z" style="fill:rgb(193,144,201);fill-rule:nonzero;"/>
            </g>
            <g transform="matrix(376.130199,0,0,376.130199,261.663653,1620.253165)">
                <path d="M0.169,0.01C0.14,0.01 0.115,0.003 0.092,-0.01C0.069,-0.023 0.052,-0.042 0.039,-0.066C0.026,-0.089 0.02,-0.116 0.02,-0.145C0.02,-0.174 0.026,-0.199 0.039,-0.222C0.052,-0.245 0.069,-0.263 0.092,-0.276C0.115,-0.288 0.14,-0.295 0.169,-0.295C0.188,-0.295 0.204,-0.292 0.219,-0.286C0.234,-0.279 0.246,-0.271 0.257,-0.261C0.258,-0.27 0.262,-0.278 0.269,-0.283C0.276,-0.288 0.283,-0.29 0.291,-0.29C0.3,-0.29 0.307,-0.287 0.315,-0.282C0.322,-0.276 0.325,-0.267 0.325,-0.256L0.325,-0.021C0.325,-0.011 0.322,-0.003 0.315,0.002C0.307,0.007 0.3,0.01 0.291,0.01C0.282,0.01 0.275,0.007 0.268,0.002C0.261,-0.003 0.257,-0.011 0.257,-0.021L0.257,-0.025C0.246,-0.014 0.234,-0.006 0.219,0.001C0.204,0.007 0.188,0.01 0.169,0.01ZM0.175,-0.052C0.2,-0.052 0.22,-0.06 0.235,-0.077C0.25,-0.095 0.257,-0.117 0.257,-0.145C0.257,-0.172 0.25,-0.193 0.235,-0.209C0.22,-0.225 0.2,-0.233 0.175,-0.233C0.149,-0.233 0.128,-0.225 0.112,-0.209C0.096,-0.193 0.088,-0.172 0.088,-0.145C0.088,-0.117 0.096,-0.095 0.112,-0.077C0.128,-0.06 0.149,-0.052 0.175,-0.052Z" style="fill:rgb(193,144,201);fill-rule:nonzero;"/>
            </g>
            <g transform="matrix(376.130199,0,0,376.130199,397.070524,1620.253165)">
                <path d="M0.173,0.01C0.128,0.01 0.092,-0.004 0.063,-0.033C0.034,-0.062 0.02,-0.099 0.02,-0.145C0.02,-0.174 0.027,-0.2 0.04,-0.223C0.053,-0.246 0.071,-0.263 0.095,-0.276C0.118,-0.289 0.144,-0.295 0.173,-0.295C0.213,-0.295 0.247,-0.286 0.275,-0.267C0.284,-0.261 0.289,-0.253 0.289,-0.242C0.289,-0.231 0.286,-0.223 0.279,-0.217C0.272,-0.211 0.265,-0.208 0.256,-0.208C0.25,-0.208 0.245,-0.209 0.24,-0.212C0.215,-0.229 0.192,-0.236 0.171,-0.234C0.145,-0.231 0.125,-0.223 0.11,-0.208C0.095,-0.193 0.088,-0.171 0.088,-0.144C0.088,-0.115 0.096,-0.093 0.112,-0.076C0.127,-0.06 0.149,-0.052 0.178,-0.052C0.203,-0.052 0.229,-0.062 0.254,-0.081C0.259,-0.086 0.266,-0.088 0.275,-0.088C0.285,-0.088 0.292,-0.084 0.297,-0.076C0.302,-0.069 0.305,-0.062 0.305,-0.055C0.305,-0.046 0.301,-0.037 0.292,-0.029C0.275,-0.014 0.257,-0.004 0.237,0.002C0.217,0.007 0.196,0.01 0.173,0.01Z" style="fill:rgb(193,144,201);fill-rule:nonzero;"/>
            </g>
        </g>
        <g>
            <g transform="matrix(376.130199,0,0,376.130199,517.432188,1620.253165)">
                <path d="M0.154,0.105C0.139,0.105 0.127,0.1 0.118,0.089C0.108,0.078 0.103,0.065 0.103,0.048L0.103,-0.399C0.103,-0.415 0.108,-0.428 0.118,-0.439C0.127,-0.45 0.139,-0.455 0.154,-0.455L0.219,-0.455C0.226,-0.455 0.232,-0.452 0.237,-0.448C0.241,-0.443 0.243,-0.436 0.243,-0.429C0.243,-0.414 0.235,-0.406 0.219,-0.406L0.182,-0.406C0.172,-0.406 0.165,-0.404 0.162,-0.4C0.158,-0.396 0.156,-0.389 0.156,-0.378L0.156,0.026C0.156,0.037 0.158,0.044 0.161,0.049C0.164,0.053 0.17,0.055 0.179,0.055L0.219,0.055C0.235,0.055 0.243,0.063 0.243,0.079C0.243,0.086 0.241,0.092 0.237,0.098C0.232,0.102 0.226,0.105 0.219,0.105L0.154,0.105Z" style="fill:rgb(156,156,156);fill-rule:nonzero;"/>
            </g>
            <g transform="matrix(376.130199,0,0,376.130199,705.497288,1620.253165)">
                <path d="M0.146,0.105L0.081,0.105C0.074,0.105 0.069,0.102 0.064,0.098C0.059,0.092 0.057,0.086 0.057,0.079C0.057,0.063 0.065,0.055 0.081,0.055L0.121,0.055C0.13,0.055 0.137,0.053 0.14,0.049C0.143,0.044 0.144,0.037 0.144,0.026L0.144,-0.378C0.144,-0.389 0.142,-0.396 0.139,-0.4C0.135,-0.404 0.128,-0.406 0.118,-0.406L0.081,-0.406C0.065,-0.406 0.057,-0.414 0.057,-0.429C0.057,-0.436 0.059,-0.443 0.064,-0.448C0.069,-0.452 0.074,-0.455 0.081,-0.455L0.146,-0.455C0.161,-0.455 0.174,-0.45 0.183,-0.439C0.192,-0.428 0.197,-0.415 0.197,-0.399L0.197,0.048C0.197,0.065 0.192,0.078 0.183,0.089C0.174,0.1 0.161,0.105 0.146,0.105Z" style="fill:rgb(156,156,156);fill-rule:nonzero;"/>
            </g>
        </g>
        <g transform="matrix(376.130199,0,0,376.130199,818.336347,1620.253165)">
            <path d="M0.101,0.015C0.088,0.015 0.077,0.011 0.069,0.003C0.059,-0.006 0.055,-0.016 0.055,-0.027C0.055,-0.039 0.059,-0.049 0.069,-0.058C0.077,-0.066 0.088,-0.07 0.101,-0.07C0.113,-0.07 0.123,-0.066 0.132,-0.058C0.141,-0.049 0.145,-0.039 0.145,-0.027C0.145,-0.016 0.141,-0.006 0.132,0.003C0.123,0.011 0.113,0.015 0.101,0.015ZM0.101,-0.215C0.088,-0.215 0.077,-0.219 0.069,-0.228C0.059,-0.236 0.055,-0.246 0.055,-0.257C0.055,-0.269 0.059,-0.279 0.069,-0.288C0.077,-0.296 0.088,-0.3 0.101,-0.3C0.113,-0.3 0.123,-0.296 0.132,-0.288C0.141,-0.279 0.145,-0.269 0.145,-0.257C0.145,-0.246 0.141,-0.236 0.132,-0.228C0.123,-0.219 0.113,-0.215 0.101,-0.215Z" style="fill:rgb(193,144,201);fill-rule:nonzero;"/>
        </g>
    </g>
    <g transform="matrix(0.822824,0,0,0.822824,239.965851,177.176287)">
        <g transform="matrix(0.707107,-0.707107,0.707107,0.707107,-319.412516,1211.198294)">
            <ellipse cx="1326.07" cy="925.768" rx="39.923" ry="74.232" style="fill:rgb(244,210,250);"/>
        </g>
        <g transform="matrix(0.707107,-0.707107,0.707107,0.707107,-175.696918,1354.913892)">
            <ellipse cx="1326.07" cy="925.768" rx="39.923" ry="74.232" style="fill:rgb(244,210,250);"/>
        </g>
        <g transform="matrix(0.707107,0.707107,-0.707107,0.707107,1133.536893,-664.147703)">
            <ellipse cx="1326.07" cy="925.768" rx="39.923" ry="74.232" style="fill:rgb(244,210,250);"/>
        </g>
        <g transform="matrix(0.707107,0.707107,-0.707107,0.707107,989.821295,-520.432105)">
            <ellipse cx="1326.07" cy="925.768" rx="39.923" ry="74.232" style="fill:rgb(244,210,250);"/>
        </g>
    </g>
</svg>
