<?xml version="1.0" encoding="UTF-8" standalone="no"?>
<!DOCTYPE svg PUBLIC "-//W3C//DTD SVG 1.1//EN" "http://www.w3.org/Graphics/SVG/1.1/DTD/svg11.dtd">
<svg width="100%" height="100%" viewBox="0 0 2000 2000" version="1.1" xmlns="http://www.w3.org/2000/svg" xmlns:xlink="http://www.w3.org/1999/xlink" xml:space="preserve" xmlns:serif="http://www.serif.com/" style="fill-rule:evenodd;clip-rule:evenodd;stroke-linejoin:round;stroke-miterlimit:2;">
    <g transform="matrix(1.946176,0,0,1.946176,46.057197,-2025.194546)">
        <text x="92.405px" y="1620.253px" style="font-family:'Dongle-Regular', 'Dongle';font-size:376.13px;fill:rgb(193,144,201);">lilac</text>
        <text x="517.432px" y="1620.253px" style="font-family:'Dongle-Regular', 'Dongle';font-size:376.13px;fill:rgb(156,156,156);">[ ]</text>
        <g transform="matrix(376.130199,0,0,376.130199,893.562387,1620.253165)">
        </g>
        <text x="818.336px" y="1620.253px" style="font-family:'Dongle-Regular', 'Dongle';font-size:376.13px;fill:rgb(193,144,201);">:</text>
    </g>
    <g transform="matrix(0.822824,0,0,0.822824,239.965851,177.176287)">
        <g transform="matrix(0.707107,-0.707107,0.707107,0.707107,-319.412516,1211.198294)">
            <ellipse cx="1326.07" cy="925.768" rx="39.923" ry="74.232" style="fill:rgb(244,210,250);"/>
        </g>
        <g transform="matrix(0.707107,-0.707107,0.707107,0.707107,-175.696918,1354.913892)">
            <ellipse cx="1326.07" cy="925.768" rx="39.923" ry="74.232" style="fill:rgb(244,210,250);"/>
        </g>
        <g transform="matrix(0.707107,0.707107,-0.707107,0.707107,1133.536893,-664.147703)">
            <ellipse cx="1326.07" cy="925.768" rx="39.923" ry="74.232" style="fill:rgb(244,210,250);"/>
        </g>
        <g transform="matrix(0.707107,0.707107,-0.707107,0.707107,989.821295,-520.432105)">
            <ellipse cx="1326.07" cy="925.768" rx="39.923" ry="74.232" style="fill:rgb(244,210,250);"/>
        </g>
    </g>
</svg>
